<svg xmlns="http://www.w3.org/2000/svg" viewBox="0 0 420 150" role="img" aria-label="UNHCR logo">
  <rect width="420" height="150" fill="#ffffff"/>
  <g fill="#1989c9">
    <path d="M58 48h12v48H58zM78 48h12v48H78zM45 60c-12 7-20 19-20 34 0 23 19 42 42 42 10 0 19-3 26-9-7 4-15 6-24 6-24 0-44-20-44-44 0-12 5-22 13-30z" opacity=".85"/>
    <path d="M112 59c8 8 13 18 13 30 0 24-20 44-44 44-9 0-17-2-24-6 7 6 16 9 26 9 23 0 42-19 42-42 0-15-8-27-20-34z" opacity=".85"/>
  </g>
  <text x="148" y="73" fill="#1989c9" font-family="Arial, Helvetica, sans-serif" font-size="48" font-weight="800">UNHCR</text>
  <text x="151" y="104" fill="#1989c9" font-family="Arial, Helvetica, sans-serif" font-size="21" font-weight="700">The UN Refugee Agency</text>
</svg>
